<?xml version="1.0" encoding="UTF-8" standalone="no"?>
<!DOCTYPE svg PUBLIC "-//W3C//DTD SVG 1.1//EN" "http://www.w3.org/Graphics/SVG/1.1/DTD/svg11.dtd">
<svg width="100%" height="100%" viewBox="0 0 1417 1417" version="1.1" style="fill-rule:evenodd;clip-rule:evenodd;stroke-linejoin:round;stroke-miterlimit:2;">
    <g id="option-4" transform="matrix(1.1583,0,0,1.1583,-112.128,-112.128)">
        <path d="M523.932,1027.73L402.564,1237.94C219.836,1132.14 96.804,934.491 96.804,708.333L339.535,708.333C339.535,844.723 413.733,963.92 523.932,1027.73Z"/>
        <path d="M523.932,1027.73L402.564,1237.94C219.836,1132.14 96.804,934.491 96.804,708.333L339.535,708.333C339.535,844.723 413.733,963.92 523.932,1027.73ZM514.143,1030.29C407.132,965.57 334.919,849.01 332.408,715.528C332.408,715.528 104.04,715.528 104.04,715.528C106.588,933.454 224.731,1123.8 399.957,1228.07L514.143,1030.29Z"/>
    </g>
</svg>
