<?xml version="1.0" encoding="UTF-8" standalone="no"?>
<!DOCTYPE svg PUBLIC "-//W3C//DTD SVG 1.1//EN" "http://www.w3.org/Graphics/SVG/1.1/DTD/svg11.dtd">
<svg width="100%" height="100%" viewBox="0 0 1417 1417" version="1.1" style="fill-rule:evenodd;clip-rule:evenodd;stroke-linejoin:round;stroke-miterlimit:2;">
    <g id="option-3" transform="matrix(1.1583,0,0,1.1583,-112.128,-112.128)">
        <path d="M892.735,1027.73L1014.1,1237.94C924.131,1290.04 819.688,1319.86 708.333,1319.86C596.978,1319.86 492.535,1290.04 402.564,1237.94L523.932,1027.73C578.191,1059.14 641.178,1077.13 708.333,1077.13C775.489,1077.13 838.476,1059.14 892.735,1027.73Z"/>
        <path d="M892.735,1027.73L1014.1,1237.94C924.131,1290.04 819.688,1319.86 708.333,1319.86C596.978,1319.86 492.535,1290.04 402.564,1237.94L523.932,1027.73C578.191,1059.14 641.178,1077.13 708.333,1077.13C775.489,1077.13 838.476,1059.14 892.735,1027.73ZM890.072,1037.5C836.192,1067.34 774.231,1084.33 708.333,1084.33C642.436,1084.33 580.475,1067.34 526.595,1037.5C526.595,1037.5 412.409,1235.28 412.409,1235.28C499.894,1284.55 600.856,1312.67 708.333,1312.67C815.81,1312.67 916.773,1284.55 1004.26,1235.28L890.072,1037.5Z"/>
    </g>
</svg>
