<?xml version="1.0" encoding="UTF-8" standalone="no"?>
<!DOCTYPE svg PUBLIC "-//W3C//DTD SVG 1.1//EN" "http://www.w3.org/Graphics/SVG/1.1/DTD/svg11.dtd">
<svg width="100%" height="100%" viewBox="0 0 1417 1417" version="1.1" style="fill-rule:evenodd;clip-rule:evenodd;stroke-linejoin:round;stroke-miterlimit:2;">
    <g id="option-2" transform="matrix(1.1583,0,0,1.1583,-112.128,-112.128)">
        <path d="M1077.13,708.333L1319.86,708.333C1319.86,934.491 1196.83,1132.14 1014.1,1237.94L892.735,1027.73C1002.93,963.92 1077.13,844.723 1077.13,708.333Z"/>
        <path d="M1077.13,708.333L1319.86,708.333C1319.86,934.491 1196.83,1132.14 1014.1,1237.94L892.735,1027.73C1002.93,963.92 1077.13,844.723 1077.13,708.333ZM1084.26,715.528C1081.75,849.01 1009.53,965.57 902.524,1030.29C922.192,1064.36 1016.71,1228.07 1016.71,1228.07C1191.93,1123.8 1310.08,933.454 1312.63,715.528L1084.26,715.528Z"/>
    </g>
</svg>
