<?xml version="1.0" encoding="UTF-8" standalone="no"?>
<!DOCTYPE svg PUBLIC "-//W3C//DTD SVG 1.1//EN" "http://www.w3.org/Graphics/SVG/1.1/DTD/svg11.dtd">
<svg width="100%" height="100%" viewBox="0 0 1417 1417" version="1.1" style="fill-rule:evenodd;clip-rule:evenodd;stroke-linejoin:round;stroke-miterlimit:2;">
    <g id="option-1" transform="matrix(1.1583,0,0,1.1583,-112.128,-112.128)">
        <path d="M892.735,388.94L1014.1,178.726C1196.83,284.527 1319.86,482.176 1319.86,708.333L1077.13,708.333C1077.13,571.943 1002.93,452.747 892.735,388.94Z" />
        <path d="M892.735,388.94L1014.1,178.726C1196.83,284.527 1319.86,482.176 1319.86,708.333L1077.13,708.333C1077.13,571.943 1002.93,452.747 892.735,388.94ZM902.524,386.374C1009.53,451.096 1081.75,567.657 1084.26,701.139C1119.73,701.139 1276.91,701.139 1312.63,701.139C1310.08,483.212 1191.93,292.865 1016.71,188.599L902.524,386.374Z"/>
    </g>
</svg>
