<?xml version="1.0" encoding="UTF-8" standalone="no"?>
<!DOCTYPE svg PUBLIC "-//W3C//DTD SVG 1.1//EN" "http://www.w3.org/Graphics/SVG/1.1/DTD/svg11.dtd">
<svg width="100%" height="100%" viewBox="0 0 1417 1417" version="1.1" style="fill-rule:evenodd;clip-rule:evenodd;stroke-linejoin:round;stroke-miterlimit:2;">
    <g id="option-6" transform="matrix(1.1583,0,0,1.1583,-112.128,-112.128)">
        <path d="M523.932,388.94L402.564,178.726C492.535,126.631 596.978,96.804 708.333,96.804C819.688,96.804 924.131,126.631 1014.1,178.726L892.735,388.94C838.476,357.523 775.489,339.535 708.333,339.535C641.178,339.535 578.191,357.523 523.932,388.94Z"/>
        <path d="M523.932,388.94L402.564,178.726C492.535,126.631 596.978,96.804 708.333,96.804C819.688,96.804 924.131,126.631 1014.1,178.726L892.735,388.94C838.476,357.523 775.489,339.535 708.333,339.535C641.178,339.535 578.191,357.523 523.932,388.94ZM526.595,379.164C580.475,349.332 642.436,332.341 708.333,332.341C774.231,332.341 836.192,349.332 890.072,379.164C890.072,379.164 1004.26,181.388 1004.26,181.388C916.773,132.114 815.81,103.998 708.333,103.998C600.856,103.998 499.894,132.114 412.409,181.388L526.595,379.164Z"/>
    </g>
</svg>
