<?xml version="1.0" encoding="UTF-8" standalone="no"?>
<!DOCTYPE svg PUBLIC "-//W3C//DTD SVG 1.1//EN" "http://www.w3.org/Graphics/SVG/1.1/DTD/svg11.dtd">
<svg width="100%" height="100%" viewBox="0 0 1417 1417" version="1.1" style="fill-rule:evenodd;clip-rule:evenodd;stroke-linejoin:round;stroke-miterlimit:2;">
    <g id="option-5" transform="matrix(1.1583,0,0,1.1583,-112.128,-112.128)">
        <path d="M339.535,708.333L96.804,708.333C96.804,482.176 219.836,284.527 402.564,178.726L523.932,388.94C413.733,452.747 339.535,571.943 339.535,708.333Z"/>
        <path d="M339.535,708.333L96.804,708.333C96.804,482.176 219.836,284.527 402.564,178.726L523.932,388.94C413.733,452.747 339.535,571.943 339.535,708.333ZM332.408,701.139C334.919,567.657 407.132,451.096 514.143,386.374C514.143,386.374 399.957,188.599 399.957,188.598C224.731,292.865 106.588,483.212 104.04,701.139L332.408,701.139Z"/>
    </g>
</svg>
