<?xml version="1.0" encoding="UTF-8" standalone="no"?>
<!DOCTYPE svg PUBLIC "-//W3C//DTD SVG 1.1//EN" "http://www.w3.org/Graphics/SVG/1.1/DTD/svg11.dtd">
<svg width="100%" height="100%" viewBox="0 0 300 300" version="1.1" style="fill-rule:evenodd;clip-rule:evenodd;stroke-linejoin:round;stroke-miterlimit:2;">
    <g transform="matrix(0.288675,-0.166667,0.166667,0.288675,81.6987,131.699)">
        <path d="M0.514,162.5C0.174,158.378 0,154.209 0,150C0,145.791 0.174,141.622 0.514,137.5C4.302,91.683 28.718,51.679 64.442,26.809C71.263,22.061 78.497,17.864 86.078,14.283C105.473,5.123 127.143,0 150,0C172.857,0 194.527,5.123 213.922,14.283C221.503,17.864 228.737,22.061 235.558,26.809C271.282,51.679 295.698,91.683 299.486,137.5C299.826,141.622 300,145.791 300,150C300,154.209 299.826,158.378 299.486,162.5C295.698,208.317 271.282,248.321 235.558,273.191C228.737,277.939 221.503,282.136 213.922,285.717C194.527,294.877 172.857,300 150,300C127.143,300 105.473,294.877 86.078,285.717C78.497,282.136 71.263,277.939 64.442,273.191C28.718,248.321 4.302,208.317 0.514,162.5Z"/>
    </g>
</svg>
