<?xml version="1.0" encoding="UTF-8" standalone="no"?>
<!DOCTYPE svg PUBLIC "-//W3C//DTD SVG 1.1//EN" "http://www.w3.org/Graphics/SVG/1.1/DTD/svg11.dtd">
<svg width="100%" height="100%" viewBox="0 0 2084 1667" version="1.1" style="fill-rule:evenodd;clip-rule:evenodd;stroke-linejoin:round;stroke-miterlimit:2;">
    <g id="body" transform="matrix(1,0,0,1,0,375)">
        <g id="face" transform="matrix(0.663445,0,0,0.957511,350.578,4.15785)">
            <path d="M570.191,1214.1C453.686,1294.74 292.844,1344.64 115.315,1344.64C-239.973,1344.64 -528.422,1144.78 -528.422,898.607C-528.422,652.433 -239.973,452.572 115.315,452.572L1968.02,452.572C2323.31,452.572 2611.76,652.433 2611.76,898.607C2611.76,1144.78 2323.31,1344.64 1968.02,1344.64C1790.49,1344.64 1629.65,1294.74 1513.14,1214.1L570.191,1214.1Z" style="fill:rgb(235,235,235);"/>
        </g>
        <g id="shoulders" transform="matrix(1,0,0,1.04683,0,-325)">
            <path d="M2083.33,127.369L2083.33,270.658C2083.33,297.019 2060.93,318.421 2033.33,318.421L50,318.421C22.404,318.421 0,297.019 0,270.658L0,159.574C0,71.503 74.851,0 167.047,0L1950,0C2023.59,0 2083.33,57.072 2083.33,127.369Z" style="fill:rgb(235,235,235);"/>
        </g>
    </g>
</svg>
