<?xml version="1.0" encoding="UTF-8" standalone="no"?>
<!DOCTYPE svg PUBLIC "-//W3C//DTD SVG 1.1//EN" "http://www.w3.org/Graphics/SVG/1.1/DTD/svg11.dtd">
<svg width="100%" height="100%" viewBox="0 0 2084 1667" version="1.1"  style="fill-rule:evenodd;clip-rule:evenodd;stroke-linejoin:round;stroke-miterlimit:2;">
    <g id="body" transform="matrix(0.663445,0,0,0.957511,350.578,379.158)">
        <g id="body1">
            <g id="body2">
                <path d="M463.539,1273.73C363.126,1318.6 243.576,1344.64 115.315,1344.64C-239.973,1344.64 -528.422,1144.78 -528.422,898.607C-528.422,652.433 -239.973,452.572 115.315,452.572L1968.02,452.572C2323.31,452.572 2611.76,652.433 2611.76,898.607C2611.76,1144.78 2323.31,1344.64 1968.02,1344.64C1836.25,1344.64 1713.67,1317.15 1611.6,1270C1587.14,1275.73 1560.95,1278.84 1533.72,1278.84C1455.95,1278.84 1386.67,1253.5 1342.13,1214.1L714.767,1214.1C670.23,1253.5 600.942,1278.84 523.179,1278.84C502.606,1278.84 482.625,1277.06 463.539,1273.73ZM2611.76,-204.514L2611.76,-47.858C2611.76,-19.038 2577.99,4.361 2536.39,4.361L-453.057,4.361C-494.652,4.361 -528.422,-19.038 -528.422,-47.858L-528.422,-169.305C-528.422,-265.592 -415.6,-343.764 -276.635,-343.764L2410.78,-343.764C2521.7,-343.764 2611.76,-281.368 2611.76,-204.514Z" />
                <path d="M463.539,1273.73C363.126,1318.6 243.576,1344.64 115.315,1344.64C-239.973,1344.64 -528.422,1144.78 -528.422,898.607C-528.422,652.433 -239.973,452.572 115.315,452.572L1968.02,452.572C2323.31,452.572 2611.76,652.433 2611.76,898.607C2611.76,1144.78 2323.31,1344.64 1968.02,1344.64C1836.25,1344.64 1713.67,1317.15 1611.6,1270C1587.14,1275.73 1560.95,1278.84 1533.72,1278.84C1455.95,1278.84 1386.67,1253.5 1342.13,1214.1L714.767,1214.1C670.23,1253.5 600.942,1278.84 523.179,1278.84C502.606,1278.84 482.625,1277.06 463.539,1273.73ZM466.613,1265.29C484.715,1268.45 503.666,1270.13 523.179,1270.13C596.929,1270.13 662.639,1246.1 704.878,1208.73C707.259,1206.62 710.906,1205.39 714.767,1205.39L1342.13,1205.39C1345.99,1205.39 1349.64,1206.62 1352.02,1208.73C1394.26,1246.1 1459.97,1270.13 1533.72,1270.13C1559.54,1270.13 1584.38,1267.19 1607.57,1261.76C1611.26,1260.89 1615.32,1261.26 1618.56,1262.76C1718.64,1308.99 1838.82,1335.94 1968.02,1335.94C2316.37,1335.94 2599.19,1139.98 2599.19,898.607C2599.19,657.237 2316.37,461.275 1968.02,461.275L115.315,461.275C-233.041,461.275 -515.861,657.237 -515.861,898.607C-515.861,1139.98 -233.041,1335.94 115.315,1335.94C241.068,1335.94 358.281,1310.4 456.731,1266.41C459.658,1265.1 463.237,1264.7 466.613,1265.29ZM2611.76,-204.514L2611.76,-47.858C2611.76,-19.038 2577.99,4.361 2536.39,4.361L-453.057,4.361C-494.652,4.361 -528.422,-19.038 -528.422,-47.858L-528.422,-169.305C-528.422,-265.592 -415.6,-343.764 -276.635,-343.764L2410.78,-343.764C2521.7,-343.764 2611.76,-281.368 2611.76,-204.514ZM2599.19,-204.514C2599.19,-276.565 2514.77,-335.061 2410.78,-335.061L-276.635,-335.061C-408.667,-335.061 -515.861,-260.788 -515.861,-169.305L-515.861,-47.858C-515.861,-23.841 -487.72,-4.342 -453.057,-4.342L2536.39,-4.342C2571.05,-4.342 2599.19,-23.841 2599.19,-47.858L2599.19,-204.514Z" style="fill:rgb(50,50,50)"/>
            </g>
        </g>
    </g>
</svg>
