<?xml version="1.0" encoding="UTF-8" standalone="no"?>
<!DOCTYPE svg PUBLIC "-//W3C//DTD SVG 1.1//EN" "http://www.w3.org/Graphics/SVG/1.1/DTD/svg11.dtd">
<svg width="100%" height="100%" viewBox="0 0 2084 1667" version="1.1"  style="fill-rule:evenodd;clip-rule:evenodd;stroke-linejoin:round;stroke-miterlimit:2;">
    <g id="d-pad-up" transform="matrix(2.24978,0,0,2.76322,-1982.22,-1371.85)">
        <g id="dpad">
            <g id="d-pad-up1">
                <path d="M1041.67,882.383L1041.67,838.095C1041.67,835.467 1044.29,833.333 1047.52,833.333L1094.3,833.333C1097.53,833.333 1100.15,835.467 1100.15,838.095L1100.15,882.383L1070.91,906.815L1041.67,882.383Z" />
                <path d="M1041.67,882.383L1041.67,838.095C1041.67,835.467 1044.29,833.333 1047.52,833.333L1094.3,833.333C1097.53,833.333 1100.15,835.467 1100.15,838.095L1100.15,882.383L1070.91,906.815L1041.67,882.383ZM1045.37,881.157L1070.91,902.494C1070.91,902.494 1096.45,881.157 1096.45,881.157L1096.45,838.095C1096.45,837.131 1095.49,836.349 1094.3,836.349L1047.52,836.349C1046.33,836.349 1045.37,837.131 1045.37,838.095L1045.37,881.157Z" />
            </g>
        </g>
    </g>
</svg>
