<?xml version="1.0" encoding="UTF-8" standalone="no"?>
<!DOCTYPE svg PUBLIC "-//W3C//DTD SVG 1.1//EN" "http://www.w3.org/Graphics/SVG/1.1/DTD/svg11.dtd">
<svg width="100%" height="100%" viewBox="0 0 2084 1667" version="1.1"  style="fill-rule:evenodd;clip-rule:evenodd;stroke-linejoin:round;stroke-miterlimit:2;">
    <g id="d-pad-left" transform="matrix(1.37759e-16,2.24978,-2.76322,1.69198e-16,2960.02,-1248.21)">
        <g id="dpad">
            <g id="d-pad-left1">
                <path d="M1100.15,950.941L1100.15,995.23C1100.15,997.858 1097.53,999.991 1094.3,999.991L1047.52,999.991C1044.29,999.991 1041.67,997.858 1041.67,995.23L1041.67,950.941L1070.91,926.51L1100.15,950.941Z" />
                <path d="M1100.15,950.941L1100.15,995.23C1100.15,997.858 1097.53,999.991 1094.3,999.991L1047.52,999.991C1044.29,999.991 1041.67,997.858 1041.67,995.23L1041.67,950.941L1070.91,926.51L1100.15,950.941ZM1096.45,952.168L1070.91,930.831C1070.91,930.831 1045.37,952.168 1045.37,952.168L1045.37,995.23C1045.37,996.193 1046.33,996.975 1047.52,996.975L1094.3,996.975C1095.49,996.975 1096.45,996.193 1096.45,995.23L1096.45,952.168Z" />
            </g>
        </g>
    </g>
</svg>
