<?xml version="1.0" encoding="UTF-8" standalone="no"?>
<!DOCTYPE svg PUBLIC "-//W3C//DTD SVG 1.1//EN" "http://www.w3.org/Graphics/SVG/1.1/DTD/svg11.dtd">
<svg width="100%" height="100%" viewBox="0 0 2084 1667" version="1.1"  style="fill-rule:evenodd;clip-rule:evenodd;stroke-linejoin:round;stroke-miterlimit:2;">
    <g id="L" transform="matrix(1,0,0,1,-5.68434e-14,-308.519)">
        <g id="shoulders">
            <g id="L1">
                <path d="M606.139,580.832L606.139,623.947C606.139,650.386 584.674,671.852 558.234,671.852L148.609,671.852C122.169,671.852 100.704,650.386 100.704,623.947L100.704,580.832C100.704,578.188 102.85,576.042 105.494,576.042L601.349,576.042C603.993,576.042 606.139,578.188 606.139,580.832ZM100.704,1272.76L100.704,1214.23C100.704,1210.79 102.128,1207.49 104.64,1205.13C188.916,1125.86 302.37,1077.27 427.083,1077.27L593.639,1077.27C600.543,1077.27 606.139,1082.87 606.139,1089.77L606.139,1121.02L427.083,1121.02C296.247,1121.02 179.072,1179.98 100.704,1272.76Z" />
                <path d="M606.139,580.832L606.139,623.947C606.139,650.386 584.674,671.852 558.234,671.852L148.609,671.852C122.169,671.852 100.704,650.386 100.704,623.947L100.704,580.832C100.704,578.188 102.85,576.042 105.494,576.042L601.349,576.042C603.993,576.042 606.139,578.188 606.139,580.832ZM109.037,584.375L109.037,623.947C109.037,645.787 126.769,663.519 148.609,663.519L558.234,663.519C580.074,663.519 597.806,645.787 597.806,623.947L597.806,584.375L109.037,584.375ZM100.704,1272.76L100.704,1214.23C100.704,1210.79 102.128,1207.49 104.64,1205.13C188.916,1125.86 302.37,1077.27 427.083,1077.27L593.639,1077.27C600.543,1077.27 606.139,1082.87 606.139,1089.77L606.139,1121.02L427.083,1121.02C296.247,1121.02 179.072,1179.98 100.704,1272.76ZM109.037,1250.84C188.521,1165.84 301.644,1112.68 427.083,1112.68L597.806,1112.68L597.806,1089.77C597.806,1087.47 595.94,1085.6 593.639,1085.6L427.083,1085.6C304.578,1085.6 193.134,1133.33 110.349,1211.2C109.512,1211.99 109.037,1213.08 109.037,1214.23L109.037,1250.84Z" />
            </g>
        </g>
    </g>
</svg>
