<?xml version="1.0" encoding="UTF-8" standalone="no"?>
<!DOCTYPE svg PUBLIC "-//W3C//DTD SVG 1.1//EN" "http://www.w3.org/Graphics/SVG/1.1/DTD/svg11.dtd">
<svg width="100%" height="100%" viewBox="0 0 2084 1667" version="1.1" style="fill-rule:evenodd;clip-rule:evenodd;stroke-linejoin:round;stroke-miterlimit:2;">
    <g id="L" transform="matrix(1,0,0,1,-5.68434e-14,-308.519)">
        <g id="shoulders">
            <path id="L1" d="M606.139,580.832L606.139,623.947C606.139,650.386 584.674,671.852 558.234,671.852L148.609,671.852C122.169,671.852 100.704,650.386 100.704,623.947L100.704,580.832C100.704,578.188 102.85,576.042 105.494,576.042L601.349,576.042C603.993,576.042 606.139,578.188 606.139,580.832ZM100.704,1272.76L100.704,1214.23C100.704,1210.79 102.128,1207.49 104.64,1205.13C188.916,1125.86 302.37,1077.27 427.083,1077.27L593.639,1077.27C600.543,1077.27 606.139,1082.87 606.139,1089.77L606.139,1121.02L427.083,1121.02C296.247,1121.02 179.072,1179.98 100.704,1272.76Z" style="fill:rgb(165,165,165);"/>
        </g>
    </g>
</svg>
