<?xml version="1.0" encoding="UTF-8" standalone="no"?>
<!DOCTYPE svg PUBLIC "-//W3C//DTD SVG 1.1//EN" "http://www.w3.org/Graphics/SVG/1.1/DTD/svg11.dtd">
<svg width="100%" height="100%" viewBox="0 0 2084 1667" version="1.1"  style="fill-rule:evenodd;clip-rule:evenodd;stroke-linejoin:round;stroke-miterlimit:2;">
    <g id="left-analog" transform="matrix(1.20285,0,0,1.20285,-554.847,484.375)">
        <circle cx="1041.29" cy="796.369" r="112.564" />
        <path d="M1041.29,683.805C1103.42,683.805 1153.86,734.244 1153.86,796.369C1153.86,858.495 1103.42,908.933 1041.29,908.933C979.169,908.933 928.73,858.495 928.73,796.369C928.73,734.244 979.169,683.805 1041.29,683.805ZM1041.29,690.733C982.992,690.733 935.658,738.067 935.658,796.369C935.658,854.671 982.992,902.005 1041.29,902.005C1099.6,902.005 1146.93,854.671 1146.93,796.369C1146.93,738.067 1099.6,690.733 1041.29,690.733Z" />
    </g>
</svg>
