<?xml version="1.0" encoding="UTF-8" standalone="no"?>
<!DOCTYPE svg PUBLIC "-//W3C//DTD SVG 1.1//EN" "http://www.w3.org/Graphics/SVG/1.1/DTD/svg11.dtd">
<svg width="100%" height="100%" viewBox="0 0 2084 1667" version="1.1"  style="fill-rule:evenodd;clip-rule:evenodd;stroke-linejoin:round;stroke-miterlimit:2;">
    <g id="left-menu" transform="matrix(0.9,0,0,1,-94.0117,338.173)">
        <g id="menu">
            <g id="left-menu1">
                <path d="M1137.06,822.917C1137.06,834.415 1126.69,843.75 1113.92,843.75L951.879,843.75C939.103,843.75 928.73,834.415 928.73,822.917C928.73,811.418 939.103,802.083 951.879,802.083L1113.92,802.083C1126.69,802.083 1137.06,811.418 1137.06,822.917Z" />
                <path d="M1137.06,822.917C1137.06,834.415 1126.69,843.75 1113.92,843.75L951.879,843.75C939.103,843.75 928.73,834.415 928.73,822.917C928.73,811.418 939.103,802.083 951.879,802.083L1113.92,802.083C1126.69,802.083 1137.06,811.418 1137.06,822.917ZM1127.81,822.917C1127.81,816.018 1121.58,810.417 1113.92,810.417L951.879,810.417C944.213,810.417 937.99,816.018 937.99,822.917C937.99,829.816 944.213,835.417 951.879,835.417L1113.92,835.417C1121.58,835.417 1127.81,829.816 1127.81,822.917Z" />
            </g>
        </g>
    </g>
</svg>
