<?xml version="1.0" encoding="UTF-8" standalone="no"?>
<!DOCTYPE svg PUBLIC "-//W3C//DTD SVG 1.1//EN" "http://www.w3.org/Graphics/SVG/1.1/DTD/svg11.dtd">
<svg width="100%" height="100%" viewBox="0 0 2084 1667" version="1.1"  style="fill-rule:evenodd;clip-rule:evenodd;stroke-linejoin:round;stroke-miterlimit:2;">
    <g id="LT" transform="matrix(1,0,0,2.04037,-5.68434e-14,-1154.16)">
        <g id="shoulders">
            <g id="LT1">
                <path d="M606.139,590.413L606.139,667.061C606.139,669.705 601.759,671.852 596.365,671.852L110.478,671.852C105.083,671.852 100.704,669.705 100.704,667.061L100.704,623.947C100.704,597.507 144.501,576.042 198.448,576.042L576.816,576.042C593,576.042 606.139,582.481 606.139,590.413Z" />
                <path d="M606.139,590.413L606.139,667.061C606.139,669.705 601.759,671.852 596.365,671.852L110.478,671.852C105.083,671.852 100.704,669.705 100.704,667.061L100.704,623.947C100.704,597.507 144.501,576.042 198.448,576.042L576.816,576.042C593,576.042 606.139,582.481 606.139,590.413ZM597.806,590.413C597.806,584.735 588.401,580.126 576.816,580.126L198.448,580.126C149.101,580.126 109.037,599.761 109.037,623.947L109.037,667.061C109.037,667.451 109.683,667.768 110.478,667.768L596.365,667.768C597.16,667.768 597.806,667.451 597.806,667.061L597.806,590.413Z" />
            </g>
        </g>
    </g>
</svg>
