<?xml version="1.0" encoding="UTF-8" standalone="no"?>
<!DOCTYPE svg PUBLIC "-//W3C//DTD SVG 1.1//EN" "http://www.w3.org/Graphics/SVG/1.1/DTD/svg11.dtd">
<svg width="100%" height="100%" viewBox="0 0 2084 1667" version="1.1"  style="fill-rule:evenodd;clip-rule:evenodd;stroke-linejoin:round;stroke-miterlimit:2;">
    <g id="R" transform="matrix(1,0,0,1,1375.75,-308.519)">
        <g id="shoulders">
            <g id="R1">
                <path d="M606.139,580.832L606.139,623.947C606.139,650.386 584.674,671.852 558.234,671.852L148.609,671.852C122.169,671.852 100.704,650.386 100.704,623.947L100.704,580.832C100.704,578.188 102.85,576.042 105.494,576.042L601.349,576.042C603.993,576.042 606.139,578.188 606.139,580.832ZM606.139,1272.76C527.771,1179.98 410.596,1121.02 279.76,1121.02L100.704,1121.02L100.704,1089.77C100.704,1082.87 106.3,1077.27 113.204,1077.27L279.76,1077.27C404.473,1077.27 517.927,1125.86 602.203,1205.13C604.715,1207.49 606.139,1210.79 606.139,1214.23L606.139,1272.76Z" />
                <path d="M606.139,580.832L606.139,623.947C606.139,650.386 584.674,671.852 558.234,671.852L148.609,671.852C122.169,671.852 100.704,650.386 100.704,623.947L100.704,580.832C100.704,578.188 102.85,576.042 105.494,576.042L601.349,576.042C603.993,576.042 606.139,578.188 606.139,580.832ZM109.037,584.375L109.037,623.947C109.037,645.787 126.769,663.519 148.609,663.519L558.234,663.519C580.074,663.519 597.806,645.787 597.806,623.947L597.806,584.375L109.037,584.375ZM606.139,1272.76C527.771,1179.98 410.596,1121.02 279.76,1121.02L100.704,1121.02L100.704,1089.77C100.704,1082.87 106.3,1077.27 113.204,1077.27L279.76,1077.27C404.473,1077.27 517.927,1125.86 602.203,1205.13C604.715,1207.49 606.139,1210.79 606.139,1214.23L606.139,1272.76ZM597.806,1250.84L597.806,1214.23C597.806,1213.08 597.331,1211.99 596.494,1211.2C513.709,1133.33 402.265,1085.6 279.76,1085.6L113.204,1085.6C110.903,1085.6 109.037,1087.47 109.037,1089.77C109.037,1089.77 109.037,1112.68 109.037,1112.68L279.76,1112.68C405.199,1112.68 518.322,1165.84 597.806,1250.84Z" />
            </g>
        </g>
    </g>
</svg>
