<?xml version="1.0" encoding="UTF-8" standalone="no"?>
<!DOCTYPE svg PUBLIC "-//W3C//DTD SVG 1.1//EN" "http://www.w3.org/Graphics/SVG/1.1/DTD/svg11.dtd">
<svg width="100%" height="100%" viewBox="0 0 2084 1667" version="1.1" style="fill-rule:evenodd;clip-rule:evenodd;stroke-linejoin:round;stroke-miterlimit:2;">
    <g id="R" transform="matrix(1,0,0,1,1375.75,-308.519)">
        <g id="shoulders">
            <path id="R1" d="M606.139,580.832L606.139,623.947C606.139,650.386 584.674,671.852 558.234,671.852L148.609,671.852C122.169,671.852 100.704,650.386 100.704,623.947L100.704,580.832C100.704,578.188 102.85,576.042 105.494,576.042L601.349,576.042C603.993,576.042 606.139,578.188 606.139,580.832ZM606.139,1272.76C527.771,1179.98 410.596,1121.02 279.76,1121.02L100.704,1121.02L100.704,1089.77C100.704,1082.87 106.3,1077.27 113.204,1077.27L279.76,1077.27C404.473,1077.27 517.927,1125.86 602.203,1205.13C604.715,1207.49 606.139,1210.79 606.139,1214.23L606.139,1272.76Z" />
        </g>
    </g>
</svg>
