<?xml version="1.0" encoding="UTF-8" standalone="no"?>
<!DOCTYPE svg PUBLIC "-//W3C//DTD SVG 1.1//EN" "http://www.w3.org/Graphics/SVG/1.1/DTD/svg11.dtd">
<svg width="100%" height="100%" viewBox="0 0 2084 1667" version="1.1"  style="fill-rule:evenodd;clip-rule:evenodd;stroke-linejoin:round;stroke-miterlimit:2;">
    <g id="RT" transform="matrix(1,0,0,2.04037,1375.75,-1154.16)">
        <g id="shoulders">
            <g id="RT1">
                <path d="M606.139,623.947L606.139,667.061C606.139,669.705 601.759,671.852 596.365,671.852L110.478,671.852C105.083,671.852 100.704,669.705 100.704,667.061L100.704,590.413C100.704,582.481 113.843,576.042 130.027,576.042L508.395,576.042C562.341,576.042 606.139,597.507 606.139,623.947Z" />
                <path d="M606.139,623.947L606.139,667.061C606.139,669.705 601.759,671.852 596.365,671.852L110.478,671.852C105.083,671.852 100.704,669.705 100.704,667.061L100.704,590.413C100.704,582.481 113.843,576.042 130.027,576.042L508.395,576.042C562.341,576.042 606.139,597.507 606.139,623.947ZM597.806,623.947C597.806,599.761 557.742,580.126 508.395,580.126L130.027,580.126C118.442,580.126 109.037,584.735 109.037,590.413L109.037,667.061C109.037,667.451 109.683,667.768 110.478,667.768L596.365,667.768C597.16,667.768 597.806,667.451 597.806,667.061L597.806,623.947Z" />
            </g>
        </g>
    </g>
</svg>
