<?xml version="1.0" encoding="UTF-8" standalone="no"?>
<!DOCTYPE svg PUBLIC "-//W3C//DTD SVG 1.1//EN" "http://www.w3.org/Graphics/SVG/1.1/DTD/svg11.dtd">
<svg width="100%" height="100%" viewBox="0 0 1417 423" version="1.1" style="fill-rule:evenodd;clip-rule:evenodd;stroke-linejoin:round;stroke-miterlimit:2;">
    <g transform="matrix(1,0,0,1,-6.39488e-14,-546.996)">
        <g transform="matrix(1,0,0,-1,0,1516.15)">
            <g transform="matrix(0.696407,0,0,1.38066,976.995,-430.972)">
                <path d="M631.343,708.333L215.672,1014.1L-200,708.333L631.343,708.333Z" style="fill:rgb(255,85,85);"/>
            </g>
            <g transform="matrix(-0.437829,0,0,-0.868018,1020.92,1584)">
                <path d="M1375.11,708.333L1175.11,855.45L140,855.45L-60,708.333L1375.11,708.333Z"/>
            </g>
            <g transform="matrix(0.437829,0,0,-0.868018,26.2698,1584)">
                <path d="M696.667,708.333L896.667,855.45L140,855.45L-60,708.333L696.667,708.333Z"/>
            </g>
        </g>
    </g>
</svg>
